<svg xmlns="http://www.w3.org/2000/svg" xmlns:xlink="http://www.w3.org/1999/xlink" width="75" zoomAndPan="magnify" viewBox="0 0 56.25 56.249997" height="75" preserveAspectRatio="xMidYMid meet" version="1.2"><g id="aa6468cf28"><path style=" stroke:none;fill-rule:nonzero;fill:#3c2a19;fill-opacity:1;" d="M 14.039062 10.460938 L 14.144531 10.566406 L 14.222656 10.640625 C 14.285156 10.707031 14.351562 10.777344 14.414062 10.84375 C 14.984375 11.453125 15.75 11.839844 16.539062 12.089844 C 16.898438 12.199219 17.257812 12.285156 17.625 12.351562 L 17.738281 12.375 C 17.984375 12.417969 18.1875 12.414062 18.429688 12.359375 C 18.585938 12.28125 18.585938 12.28125 18.734375 12.175781 C 20.304688 11.15625 22.148438 10.585938 24.015625 10.460938 C 26.292969 10.355469 28.4375 10.828125 30.464844 11.871094 C 30.695312 12.003906 30.921875 12.140625 31.140625 12.289062 C 31.304688 12.390625 31.433594 12.464844 31.628906 12.476562 C 31.769531 12.464844 31.898438 12.441406 32.039062 12.414062 L 32.164062 12.386719 C 32.289062 12.359375 32.414062 12.328125 32.535156 12.296875 L 32.671875 12.257812 C 33.085938 12.144531 33.484375 11.996094 33.878906 11.816406 L 33.988281 11.769531 C 34.535156 11.523438 34.992188 11.226562 35.453125 10.839844 L 35.636719 10.691406 L 35.777344 10.570312 C 36.085938 11.136719 36.132812 11.667969 36.121094 12.304688 C 36.085938 13.058594 35.742188 13.738281 35.347656 14.367188 C 35.082031 14.753906 34.761719 15.074219 34.421875 15.394531 C 34.488281 15.53125 34.558594 15.664062 34.632812 15.792969 C 35.402344 17.183594 35.8125 18.6875 35.886719 20.273438 L 35.894531 20.464844 C 35.929688 21.980469 35.636719 23.476562 34.921875 24.816406 C 34.640625 25.324219 34.292969 25.796875 33.898438 26.226562 C 33.816406 26.316406 33.816406 26.316406 33.71875 26.453125 C 33.742188 26.621094 33.8125 26.765625 33.882812 26.917969 C 34.433594 28.125 34.804688 29.359375 34.910156 30.683594 L 35.613281 30.738281 L 35.679688 30.402344 C 35.777344 29.910156 35.894531 29.425781 36.011719 28.941406 C 36.078125 28.667969 36.144531 28.390625 36.210938 28.117188 L 36.25 27.945312 C 36.382812 27.398438 36.511719 26.855469 36.640625 26.308594 C 36.675781 26.152344 36.714844 25.992188 36.75 25.832031 C 36.851562 25.40625 36.953125 24.980469 37.054688 24.550781 C 37.222656 23.832031 37.394531 23.109375 37.566406 22.386719 L 37.601562 22.242188 C 37.667969 21.960938 37.738281 21.683594 37.804688 21.402344 C 37.828125 21.316406 37.847656 21.234375 37.867188 21.148438 C 37.894531 21.035156 37.925781 20.917969 37.953125 20.800781 L 38 20.605469 C 38.054688 20.4375 38.117188 20.308594 38.21875 20.164062 C 38.390625 20.078125 38.570312 20.101562 38.757812 20.113281 C 38.902344 20.132812 39.042969 20.160156 39.183594 20.1875 L 39.308594 20.214844 C 39.441406 20.242188 39.578125 20.269531 39.714844 20.300781 C 39.8125 20.320312 39.910156 20.339844 40.011719 20.359375 C 40.28125 20.417969 40.550781 20.472656 40.820312 20.53125 C 41.109375 20.589844 41.398438 20.648438 41.683594 20.710938 C 42.1875 20.8125 42.691406 20.917969 43.191406 21.023438 C 43.996094 21.191406 44.796875 21.359375 45.597656 21.523438 C 46.921875 21.796875 48.246094 22.074219 49.566406 22.347656 C 49.917969 22.421875 50.273438 22.496094 50.625 22.570312 C 50.800781 22.605469 50.972656 22.640625 51.148438 22.679688 L 51.488281 22.75 L 51.644531 22.78125 C 51.894531 22.832031 52.105469 22.878906 52.3125 23.039062 C 52.378906 23.175781 52.382812 23.289062 52.378906 23.4375 C 52.351562 23.722656 52.273438 23.996094 52.203125 24.269531 C 52.148438 24.488281 52.09375 24.703125 52.039062 24.921875 L 52.003906 25.070312 C 51.835938 25.746094 51.675781 26.425781 51.519531 27.101562 C 51.472656 27.304688 51.425781 27.507812 51.375 27.710938 C 51.332031 27.902344 51.285156 28.097656 51.242188 28.289062 C 51.222656 28.363281 51.207031 28.433594 51.1875 28.507812 C 51.164062 28.605469 51.140625 28.707031 51.121094 28.804688 L 51.078125 28.976562 L 51.066406 29.109375 C 51.164062 29.226562 51.164062 29.226562 51.285156 29.253906 L 51.425781 29.289062 C 51.746094 29.382812 52 29.511719 52.246094 29.742188 C 52.421875 29.9375 52.515625 30.097656 52.582031 30.355469 C 52.664062 31.105469 52.492188 31.804688 52.3125 32.523438 L 52.257812 32.742188 C 51.46875 35.882812 51.46875 35.882812 50.578125 36.808594 C 50.183594 37.175781 49.707031 37.515625 49.191406 37.683594 L 49.003906 37.785156 C 48.914062 37.949219 48.914062 37.949219 48.875 38.148438 L 48.847656 38.257812 C 48.816406 38.378906 48.789062 38.503906 48.761719 38.625 C 48.742188 38.710938 48.71875 38.792969 48.699219 38.878906 C 48.644531 39.101562 48.589844 39.328125 48.539062 39.550781 C 48.453125 39.90625 48.367188 40.265625 48.28125 40.621094 C 48.25 40.746094 48.222656 40.871094 48.191406 40.996094 C 48.003906 41.792969 48.003906 41.792969 47.8125 42.121094 L 47.703125 42.230469 C 47.332031 42.253906 47.003906 42.195312 46.644531 42.109375 L 46.480469 42.070312 C 46.300781 42.027344 46.121094 41.988281 45.941406 41.945312 L 45.5625 41.855469 C 44.726562 41.660156 43.890625 41.457031 43.054688 41.253906 L 42.894531 41.214844 C 42.328125 41.074219 41.761719 40.933594 41.199219 40.785156 C 40.960938 40.722656 40.722656 40.660156 40.484375 40.601562 C 40.320312 40.554688 40.152344 40.511719 39.984375 40.464844 C 39.3125 40.28125 39.3125 40.28125 38.628906 40.34375 L 38.488281 40.386719 C 38.390625 40.40625 38.292969 40.425781 38.195312 40.441406 C 38.054688 40.46875 37.910156 40.496094 37.769531 40.527344 C 36.363281 40.800781 34.867188 40.710938 33.5 40.277344 L 33.398438 40.246094 C 32.890625 40.078125 32.433594 39.855469 31.976562 39.585938 L 31.855469 39.515625 L 31.753906 39.453125 C 31.652344 39.398438 31.652344 39.398438 31.496094 39.410156 C 31.378906 39.539062 31.378906 39.539062 31.261719 39.710938 C 30.9375 40.148438 30.570312 40.535156 30.195312 40.925781 L 30.109375 41.019531 C 30.027344 41.101562 29.945312 41.1875 29.867188 41.269531 L 29.726562 41.410156 C 29.667969 41.46875 29.605469 41.523438 29.542969 41.578125 L 29.402344 41.710938 C 29.164062 41.917969 28.949219 42.09375 28.640625 42.171875 C 28.417969 42.1875 28.203125 42.191406 27.980469 42.1875 C 27.894531 42.1875 27.8125 42.1875 27.726562 42.1875 C 27.496094 42.191406 27.265625 42.1875 27.035156 42.183594 C 26.785156 42.183594 26.535156 42.183594 26.285156 42.183594 C 25.855469 42.1875 25.421875 42.183594 24.988281 42.183594 C 24.363281 42.179688 23.738281 42.179688 23.109375 42.179688 C 22.09375 42.179688 21.074219 42.179688 20.054688 42.175781 C 19.070312 42.171875 18.085938 42.171875 17.101562 42.167969 L 16.917969 42.167969 C 16.253906 42.167969 15.589844 42.167969 14.925781 42.167969 L 14.046875 42.167969 C 13.367188 42.167969 12.683594 42.164062 12.003906 42.164062 C 11.574219 42.160156 11.148438 42.160156 10.71875 42.160156 C 10.472656 42.160156 10.226562 42.160156 9.980469 42.160156 C 9 42.152344 8.046875 42.167969 7.078125 42.316406 C 6.667969 42.375 6.257812 42.398438 5.847656 42.402344 L 5.714844 42.402344 C 5.621094 42.402344 5.53125 42.402344 5.4375 42.402344 C 5.296875 42.402344 5.160156 42.402344 5.019531 42.402344 C 4.929688 42.402344 4.839844 42.402344 4.75 42.402344 L 4.625 42.40625 C 4.363281 42.402344 4.148438 42.375 3.902344 42.28125 C 3.796875 42.140625 3.796875 42.140625 3.742188 42.011719 L 3.855469 41.851562 C 4.410156 41.0625 4.867188 40.242188 5.257812 39.355469 L 5.3125 39.238281 C 5.777344 38.171875 6.0625 37.042969 6.355469 35.925781 C 7.296875 32.367188 7.296875 32.367188 7.972656 30.898438 C 8.023438 30.789062 8.070312 30.679688 8.117188 30.570312 C 8.695312 29.261719 9.523438 28.074219 10.515625 27.050781 C 10.542969 27.023438 10.570312 26.992188 10.597656 26.964844 C 10.917969 26.628906 11.246094 26.316406 11.613281 26.035156 C 12.171875 25.605469 12.640625 25.136719 12.957031 24.503906 C 13.050781 24.253906 13.117188 24.003906 13.171875 23.742188 L 13.199219 23.625 C 13.296875 23.152344 13.316406 22.671875 13.347656 22.191406 C 13.484375 19.910156 13.855469 17.753906 15.132812 15.8125 C 15.195312 15.722656 15.261719 15.632812 15.324219 15.542969 C 15.398438 15.449219 15.398438 15.449219 15.449219 15.339844 L 15.359375 15.304688 C 14.941406 15.066406 14.597656 14.632812 14.339844 14.230469 C 14.15625 13.90625 14 13.578125 13.878906 13.226562 L 13.824219 13.082031 C 13.628906 12.4375 13.644531 11.683594 13.785156 11.03125 C 13.839844 10.816406 13.917969 10.648438 14.039062 10.460938 "/><path style=" stroke:none;fill-rule:nonzero;fill:#94663a;fill-opacity:1;" d="M 16.316406 15.992188 C 16.609375 16.003906 16.875 16.128906 17.144531 16.238281 C 17.585938 16.414062 18.035156 16.5625 18.492188 16.699219 C 19.167969 16.902344 19.835938 17.136719 20.492188 17.402344 L 20.492188 17.457031 L 20.375 17.46875 C 19.753906 17.558594 19.21875 17.746094 18.714844 18.121094 L 18.59375 18.214844 L 18.457031 18.316406 C 18.308594 18.445312 18.195312 18.578125 18.078125 18.738281 L 17.957031 18.898438 C 17.808594 19.113281 17.6875 19.339844 17.5625 19.570312 L 17.464844 19.542969 C 16.574219 19.285156 16.574219 19.285156 15.667969 19.296875 C 15.539062 19.394531 15.539062 19.394531 15.449219 19.515625 C 15.429688 19.679688 15.433594 19.796875 15.492188 19.953125 C 15.550781 20.0625 15.550781 20.0625 15.660156 20.117188 C 16.070312 20.257812 16.484375 20.359375 16.910156 20.449219 L 17.054688 20.484375 L 17.183594 20.511719 C 17.292969 20.546875 17.292969 20.546875 17.402344 20.652344 C 17.40625 20.804688 17.40625 20.804688 17.402344 20.996094 C 17.390625 21.851562 17.605469 22.570312 18.007812 23.320312 C 18.101562 23.464844 18.199219 23.570312 18.324219 23.6875 L 18.324219 23.796875 L 18.421875 23.84375 C 18.539062 23.90625 18.539062 23.90625 18.6875 24.046875 C 18.886719 24.222656 19.101562 24.339844 19.335938 24.457031 L 19.441406 24.511719 C 19.972656 24.777344 20.515625 24.855469 21.105469 24.851562 L 21.285156 24.851562 C 22 24.835938 22.605469 24.636719 23.253906 24.339844 L 23.328125 24.425781 C 23.613281 24.746094 23.90625 25.050781 24.207031 25.351562 L 24.324219 25.46875 C 24.542969 25.6875 24.765625 25.894531 25 26.097656 C 25.386719 26.4375 25.738281 26.820312 26.074219 27.210938 L 26.128906 27.265625 C 26.285156 27.273438 26.363281 27.269531 26.507812 27.210938 C 27.015625 26.839844 27.375 26.230469 27.632812 25.664062 C 27.820312 25.1875 27.917969 24.675781 28.027344 24.175781 C 28.148438 24.238281 28.269531 24.300781 28.390625 24.363281 C 29.242188 24.800781 29.992188 24.871094 30.945312 24.839844 C 31.507812 24.800781 32.011719 24.578125 32.488281 24.277344 C 33.039062 23.894531 33.421875 23.417969 33.710938 22.8125 C 34.011719 22.058594 34.121094 21.253906 34.015625 20.445312 C 33.882812 19.714844 33.613281 19.066406 33.140625 18.484375 C 32.726562 18.039062 32.175781 17.765625 31.601562 17.582031 C 31.195312 17.476562 30.773438 17.472656 30.355469 17.457031 C 30.621094 17.242188 30.929688 17.125 31.238281 16.988281 L 31.417969 16.90625 C 32.023438 16.636719 32.023438 16.636719 32.363281 16.640625 C 32.550781 16.714844 32.550781 16.714844 32.734375 16.828125 L 32.835938 16.886719 C 33.304688 17.183594 33.71875 17.535156 34.097656 17.941406 L 34.199219 18.046875 C 34.421875 18.292969 34.527344 18.542969 34.601562 18.859375 C 34.765625 19.632812 34.828125 20.40625 34.804688 21.195312 C 34.800781 21.292969 34.800781 21.390625 34.800781 21.488281 C 34.765625 22.507812 34.457031 23.582031 33.941406 24.460938 C 33.28125 25.488281 32.484375 26.277344 31.40625 26.835938 C 31.148438 26.960938 30.902344 27.074219 30.628906 27.160156 C 31.078125 27.285156 31.625 27.257812 32.078125 27.175781 C 32.1875 27.148438 32.292969 27.117188 32.398438 27.085938 C 32.523438 27.050781 32.523438 27.050781 32.742188 27.050781 C 33.171875 27.960938 33.496094 28.871094 33.664062 29.867188 L 33.699219 30.042969 C 33.9375 31.4375 33.753906 32.964844 33.28125 34.292969 C 33.121094 34.707031 32.9375 35.109375 32.742188 35.507812 L 32.691406 35.613281 C 32.027344 36.964844 31.148438 38.289062 30.140625 39.410156 L 30 39.570312 C 28.492188 41.242188 28.492188 41.242188 27.972656 41.414062 C 27.980469 41.308594 27.980469 41.308594 28.027344 41.144531 C 28.070312 41.082031 28.117188 41.019531 28.164062 40.960938 C 28.351562 40.726562 28.484375 40.46875 28.625 40.203125 C 28.726562 40.003906 28.835938 39.808594 28.953125 39.621094 C 29.242188 39.148438 29.449219 38.648438 29.609375 38.125 C 29.652344 38 29.652344 38 29.707031 37.945312 C 29.726562 37.871094 29.742188 37.792969 29.757812 37.714844 C 29.796875 37.53125 29.851562 37.363281 29.921875 37.1875 L 29.921875 37.023438 L 29.773438 37.179688 L 29.578125 37.378906 L 29.480469 37.480469 L 29.382812 37.574219 C 29.355469 37.605469 29.324219 37.632812 29.296875 37.664062 L 29.21875 37.730469 L 29.109375 37.730469 L 29.109375 37.835938 C 28.949219 37.988281 28.773438 38.121094 28.597656 38.257812 C 28.519531 38.320312 28.4375 38.386719 28.359375 38.449219 C 27.960938 38.765625 27.546875 38.992188 27.089844 39.203125 C 27.011719 39.242188 26.929688 39.277344 26.851562 39.320312 C 26.566406 39.457031 26.28125 39.523438 25.964844 39.574219 L 26.105469 39.425781 C 26.347656 39.144531 26.503906 38.816406 26.671875 38.488281 L 26.734375 38.371094 C 26.996094 37.890625 27.121094 37.34375 27.210938 36.808594 L 27.097656 36.9375 C 26.59375 37.5 26.074219 37.9375 25.425781 38.324219 L 25.328125 38.382812 C 24.675781 38.769531 23.941406 39.074219 23.203125 39.246094 L 23.332031 39.023438 C 23.371094 38.953125 23.40625 38.886719 23.445312 38.816406 C 23.546875 38.636719 23.652344 38.460938 23.761719 38.285156 C 24.222656 37.535156 24.445312 36.710938 24.503906 35.832031 L 24.410156 35.960938 C 24.171875 36.285156 23.929688 36.585938 23.636719 36.863281 L 23.503906 36.996094 C 22.777344 37.71875 21.800781 38.300781 20.816406 38.597656 C 20.632812 38.628906 20.457031 38.648438 20.273438 38.652344 L 20.382812 38.597656 L 20.421875 38.457031 C 20.484375 38.292969 20.523438 38.21875 20.628906 38.089844 C 20.800781 37.871094 20.933594 37.644531 21.066406 37.402344 L 21.128906 37.296875 C 21.1875 37.1875 21.246094 37.078125 21.304688 36.96875 L 21.363281 36.863281 C 21.492188 36.617188 21.582031 36.371094 21.660156 36.101562 L 21.695312 35.984375 C 21.792969 35.632812 21.863281 35.277344 21.921875 34.914062 C 21.953125 34.746094 21.953125 34.746094 22.007812 34.640625 L 21.898438 34.640625 L 21.859375 34.757812 C 21.785156 34.925781 21.691406 35.054688 21.574219 35.199219 L 21.460938 35.34375 L 21.359375 35.453125 L 21.25 35.453125 L 21.210938 35.542969 C 20.875 36.136719 20.101562 36.539062 19.53125 36.878906 C 18.625 37.40625 17.664062 37.785156 16.652344 38.054688 C 16.480469 38.097656 16.480469 38.097656 16.375 38.195312 L 16.316406 38.269531 L 16.207031 38.21875 L 16.34375 38.097656 C 16.734375 37.746094 17.082031 37.386719 17.402344 36.96875 C 17.453125 36.90625 17.503906 36.839844 17.554688 36.773438 C 18.199219 35.953125 18.652344 35.066406 19.027344 34.097656 L 19.105469 33.898438 C 19.449219 32.964844 19.535156 31.996094 19.539062 31.011719 L 19.539062 30.890625 C 19.546875 29.742188 19.300781 28.65625 18.730469 27.648438 C 18.53125 27.316406 18.277344 27.046875 17.996094 26.777344 L 17.890625 26.671875 C 17.316406 26.125 16.519531 25.789062 15.761719 25.597656 C 15 25.457031 14.203125 25.503906 13.445312 25.640625 L 13.515625 25.535156 C 13.953125 24.878906 14.230469 24.1875 14.339844 23.40625 L 14.359375 23.25 C 14.417969 22.804688 14.441406 22.355469 14.464844 21.90625 C 14.5625 19.898438 14.929688 18.09375 15.992188 16.371094 C 16.09375 16.214844 16.171875 16.117188 16.316406 15.992188 "/><path style=" stroke:none;fill-rule:nonzero;fill:#dbbe93;fill-opacity:1;" d="M 38.976562 21.304688 C 39.855469 21.378906 40.71875 21.59375 41.578125 21.785156 C 42.429688 21.96875 43.277344 22.152344 44.128906 22.332031 C 44.476562 22.40625 44.820312 22.476562 45.167969 22.550781 L 45.289062 22.578125 C 45.976562 22.722656 46.664062 22.871094 47.347656 23.019531 L 47.496094 23.050781 C 47.976562 23.152344 48.457031 23.257812 48.9375 23.359375 C 49.117188 23.398438 49.292969 23.4375 49.472656 23.476562 L 49.722656 23.53125 C 50.167969 23.628906 50.613281 23.71875 51.066406 23.796875 C 51.121094 23.976562 51.117188 24.113281 51.082031 24.289062 C 51.058594 24.378906 51.039062 24.46875 51.015625 24.558594 L 50.980469 24.703125 C 50.941406 24.867188 50.902344 25.027344 50.863281 25.1875 L 50.78125 25.519531 C 50.710938 25.8125 50.640625 26.105469 50.570312 26.398438 C 50.496094 26.699219 50.425781 26.996094 50.351562 27.296875 C 50.210938 27.882812 50.070312 28.46875 49.925781 29.054688 L 49.734375 29.066406 L 49.480469 29.082031 L 49.355469 29.085938 C 48.628906 29.128906 47.9375 29.308594 47.324219 29.707031 C 47.128906 29.875 46.996094 30.054688 46.867188 30.277344 C 46.804688 30.558594 46.816406 30.808594 46.894531 31.085938 C 46.980469 31.328125 47.125 31.511719 47.289062 31.710938 C 47.375 31.816406 47.433594 31.914062 47.488281 32.039062 L 47.398438 32.101562 C 47.203125 32.261719 47.035156 32.414062 46.917969 32.640625 C 46.796875 32.957031 46.800781 33.273438 46.835938 33.609375 C 46.9375 34.136719 47.207031 34.503906 47.542969 34.910156 L 47.613281 35.007812 C 47.816406 35.273438 48.089844 35.464844 48.355469 35.667969 C 48.175781 36.507812 47.96875 37.339844 47.765625 38.167969 L 47.667969 38.570312 C 47.464844 39.390625 47.257812 40.214844 47.054688 41.035156 C 46.699219 41 46.359375 40.925781 46.015625 40.84375 L 45.835938 40.800781 C 45.710938 40.769531 45.585938 40.742188 45.460938 40.710938 C 45.257812 40.664062 45.054688 40.613281 44.851562 40.566406 L 44.230469 40.417969 C 43.683594 40.289062 43.132812 40.160156 42.585938 40.03125 L 42.140625 39.925781 C 41.585938 39.796875 41.03125 39.667969 40.476562 39.539062 L 39.382812 39.28125 C 39.15625 39.230469 38.933594 39.175781 38.707031 39.125 C 37.4375 38.828125 36.171875 38.527344 34.910156 38.21875 C 35.066406 37.457031 35.242188 36.703125 35.429688 35.945312 C 35.726562 34.765625 36.011719 33.582031 36.285156 32.398438 C 36.492188 31.515625 36.703125 30.636719 36.914062 29.753906 C 37.113281 28.925781 37.3125 28.097656 37.511719 27.269531 C 37.570312 27.019531 37.628906 26.769531 37.691406 26.519531 L 37.714844 26.414062 L 37.820312 25.980469 C 37.914062 25.578125 38.011719 25.175781 38.105469 24.773438 C 38.183594 24.445312 38.265625 24.117188 38.34375 23.789062 C 38.382812 23.617188 38.425781 23.445312 38.464844 23.273438 C 38.785156 21.929688 38.785156 21.929688 38.976562 21.304688 "/><path style=" stroke:none;fill-rule:nonzero;fill:#d5b285;fill-opacity:1;" d="M 32.351562 16.660156 C 33.027344 16.871094 33.625 17.433594 34.097656 17.941406 L 34.199219 18.046875 C 34.421875 18.292969 34.527344 18.542969 34.601562 18.859375 C 34.765625 19.632812 34.828125 20.40625 34.804688 21.195312 C 34.800781 21.292969 34.800781 21.390625 34.800781 21.488281 C 34.765625 22.507812 34.457031 23.582031 33.941406 24.460938 C 33.28125 25.488281 32.484375 26.277344 31.40625 26.835938 C 31.148438 26.960938 30.902344 27.074219 30.628906 27.160156 C 31.078125 27.285156 31.625 27.257812 32.078125 27.175781 C 32.1875 27.148438 32.292969 27.117188 32.398438 27.085938 C 32.523438 27.050781 32.523438 27.050781 32.742188 27.050781 C 33.171875 27.960938 33.496094 28.871094 33.664062 29.867188 L 33.699219 30.042969 C 33.9375 31.4375 33.753906 32.964844 33.28125 34.289062 C 32.847656 35.421875 32.847656 35.421875 32.578125 35.667969 L 32.589844 35.480469 C 32.609375 35.183594 32.621094 34.882812 32.632812 34.585938 L 32.640625 34.417969 C 32.691406 32.996094 32.476562 31.660156 31.808594 30.398438 C 31.699219 30.191406 31.582031 30 31.441406 29.816406 L 31.441406 29.921875 C 31.429688 31.058594 31.359375 32.21875 30.789062 33.230469 L 30.695312 33.417969 C 30.371094 34.035156 29.925781 34.527344 29.382812 34.964844 L 29.328125 34.855469 C 29.347656 34.765625 29.375 34.671875 29.402344 34.582031 C 29.507812 34.1875 29.515625 33.808594 29.511719 33.40625 C 29.511719 33.289062 29.511719 33.167969 29.511719 33.046875 C 29.511719 32.402344 29.40625 31.8125 29.167969 31.207031 L 29.125 31.097656 C 29.027344 30.839844 28.914062 30.597656 28.785156 30.355469 L 28.769531 30.519531 C 28.652344 31.597656 28.339844 32.613281 27.699219 33.5 C 27.308594 34.03125 26.890625 34.582031 26.34375 34.964844 L 26.238281 34.964844 L 26.242188 34.765625 C 26.253906 33.667969 26.113281 32.582031 25.582031 31.601562 C 25.160156 30.871094 24.644531 30.214844 24.070312 29.597656 L 24.054688 29.765625 C 23.976562 30.683594 23.699219 31.496094 23.210938 32.273438 C 23.113281 32.410156 23 32.519531 22.875 32.632812 L 22.875 32.484375 C 22.84375 31.371094 22.445312 30.34375 21.898438 29.382812 C 21.722656 29.09375 21.519531 28.828125 21.304688 28.566406 L 21.183594 28.421875 C 20.957031 28.15625 20.707031 27.917969 20.453125 27.679688 L 20.367188 27.597656 C 20.226562 27.46875 20.085938 27.355469 19.925781 27.25 L 19.785156 27.160156 L 19.785156 27.105469 L 21.140625 27.105469 L 20.828125 27.027344 C 19.800781 26.746094 18.835938 26.167969 18.0625 25.441406 C 17.40625 24.761719 16.851562 23.933594 16.613281 23.007812 C 16.46875 22.402344 16.363281 21.8125 16.363281 21.1875 L 16.363281 21.078125 C 16.363281 20.839844 16.386719 20.617188 16.425781 20.382812 C 16.566406 20.40625 16.710938 20.433594 16.851562 20.457031 L 16.976562 20.476562 C 17.082031 20.496094 17.1875 20.519531 17.292969 20.546875 L 17.402344 20.652344 C 17.40625 20.804688 17.40625 20.804688 17.402344 20.996094 C 17.390625 21.851562 17.605469 22.570312 18.007812 23.320312 C 18.101562 23.464844 18.199219 23.570312 18.324219 23.6875 L 18.324219 23.796875 L 18.421875 23.84375 C 18.539062 23.90625 18.539062 23.90625 18.6875 24.046875 C 18.886719 24.222656 19.101562 24.339844 19.335938 24.457031 L 19.441406 24.511719 C 19.972656 24.777344 20.515625 24.855469 21.105469 24.851562 L 21.285156 24.851562 C 22 24.835938 22.605469 24.636719 23.253906 24.339844 L 23.328125 24.425781 C 23.613281 24.746094 23.90625 25.050781 24.207031 25.351562 L 24.324219 25.46875 C 24.542969 25.6875 24.765625 25.894531 25 26.097656 C 25.386719 26.4375 25.738281 26.820312 26.074219 27.210938 L 26.128906 27.265625 C 26.285156 27.273438 26.363281 27.269531 26.507812 27.210938 C 27.015625 26.839844 27.375 26.230469 27.632812 25.664062 C 27.820312 25.1875 27.917969 24.675781 28.027344 24.175781 C 28.148438 24.238281 28.269531 24.300781 28.390625 24.363281 C 29.242188 24.800781 29.992188 24.871094 30.945312 24.839844 C 31.507812 24.800781 32.011719 24.578125 32.488281 24.277344 C 33.039062 23.894531 33.421875 23.417969 33.710938 22.8125 C 34.011719 22.058594 34.121094 21.253906 34.015625 20.445312 C 33.882812 19.714844 33.613281 19.066406 33.140625 18.484375 C 32.726562 18.039062 32.175781 17.765625 31.601562 17.582031 C 31.195312 17.476562 30.773438 17.472656 30.355469 17.457031 C 30.523438 17.320312 30.691406 17.234375 30.886719 17.148438 L 31.066406 17.070312 L 31.253906 16.988281 L 31.445312 16.90625 C 32.101562 16.617188 32.101562 16.617188 32.351562 16.660156 "/><path style=" stroke:none;fill-rule:nonzero;fill:#804f2b;fill-opacity:1;" d="M 16.132812 26.855469 C 16.738281 27.125 17.234375 27.484375 17.625 28.023438 C 18.039062 28.660156 18.289062 29.355469 18.332031 30.113281 C 18.339844 30.324219 18.339844 30.53125 18.339844 30.742188 L 18.339844 30.855469 C 18.335938 31.429688 18.300781 31.96875 18.160156 32.523438 L 18.136719 32.628906 C 17.863281 33.828125 17.25 34.949219 16.433594 35.859375 L 16.3125 35.988281 C 16.230469 36.082031 16.148438 36.175781 16.070312 36.277344 C 15.898438 36.472656 15.703125 36.640625 15.503906 36.808594 C 15.429688 36.871094 15.359375 36.933594 15.285156 36.996094 L 15.125 37.132812 L 15.015625 37.078125 L 15.074219 36.960938 C 15.746094 35.570312 16.03125 34.058594 16.101562 32.523438 L 16.050781 32.667969 C 15.660156 33.796875 15.066406 34.832031 14.417969 35.832031 L 14.292969 36.027344 C 14.097656 36.328125 13.890625 36.617188 13.660156 36.890625 C 13.589844 36.976562 13.519531 37.066406 13.453125 37.15625 C 12.597656 38.253906 11.441406 39.359375 10.140625 39.910156 C 10.105469 39.925781 10.066406 39.9375 10.027344 39.953125 C 10.1875 39.765625 10.34375 39.582031 10.503906 39.402344 C 12.15625 37.535156 13.054688 35.273438 13.550781 32.851562 C 13.574219 32.722656 13.589844 32.597656 13.605469 32.472656 L 13.539062 32.632812 C 13.078125 33.726562 12.503906 34.757812 11.816406 35.722656 L 11.683594 35.917969 C 10.730469 37.273438 9.652344 38.597656 8.347656 39.625 C 8.289062 39.675781 8.230469 39.722656 8.175781 39.769531 C 7.410156 40.386719 6.570312 40.972656 5.636719 41.308594 L 5.476562 41.308594 C 5.550781 41.105469 5.644531 40.917969 5.746094 40.726562 L 5.839844 40.546875 L 5.890625 40.453125 C 6.171875 39.917969 6.4375 39.390625 6.636719 38.820312 C 6.707031 38.628906 6.757812 38.507812 6.902344 38.363281 C 7.0625 38.261719 7.230469 38.167969 7.398438 38.074219 C 8.414062 37.507812 9.210938 36.710938 9.8125 35.722656 L 9.882812 35.609375 C 10.472656 34.617188 10.8125 33.484375 11.058594 32.363281 L 10.960938 32.53125 C 10.628906 33.113281 10.265625 33.664062 9.867188 34.207031 L 9.792969 34.300781 C 9.054688 35.300781 8.230469 36.132812 7.265625 36.917969 L 7.210938 36.808594 C 7.230469 36.691406 7.257812 36.578125 7.289062 36.464844 L 7.316406 36.363281 C 7.34375 36.25 7.375 36.136719 7.402344 36.023438 L 7.433594 35.910156 C 7.582031 35.347656 7.738281 34.789062 7.921875 34.234375 C 7.976562 34.074219 8.03125 33.910156 8.082031 33.746094 C 8.425781 32.691406 8.796875 31.664062 9.324219 30.683594 L 9.375 30.582031 C 9.96875 29.484375 10.816406 28.273438 11.875 27.582031 L 12.035156 27.484375 L 12.136719 27.417969 C 13.316406 26.695312 14.789062 26.3125 16.132812 26.855469 "/><path style=" stroke:none;fill-rule:nonzero;fill:#96683c;fill-opacity:1;" d="M 24.695312 11.523438 L 24.84375 11.523438 C 25.710938 11.523438 26.527344 11.609375 27.375 11.816406 C 27.425781 11.828125 27.476562 11.84375 27.53125 11.855469 C 28.273438 12.035156 28.960938 12.316406 29.652344 12.628906 C 29.71875 12.660156 29.789062 12.691406 29.855469 12.722656 C 29.988281 12.78125 30.117188 12.839844 30.25 12.902344 L 30.25 13.011719 L 30.078125 13.089844 C 29.039062 13.597656 28.066406 14.207031 27.402344 15.175781 C 27.101562 15.628906 26.875 16.105469 26.777344 16.640625 L 26.878906 16.507812 L 26.996094 16.371094 L 27.105469 16.371094 L 27.105469 16.261719 C 27.234375 16.121094 27.390625 16.003906 27.539062 15.882812 L 27.625 15.8125 C 29.050781 14.613281 30.679688 13.929688 32.46875 13.4375 C 33.238281 13.222656 33.96875 12.941406 34.664062 12.546875 C 34.8125 12.460938 34.898438 12.414062 35.074219 12.414062 C 34.855469 13.132812 34.574219 13.765625 34.042969 14.3125 C 32.972656 15.300781 31.527344 15.921875 30.171875 16.40625 C 29.363281 16.714844 28.570312 17.15625 27.917969 17.726562 L 27.8125 17.816406 C 27.367188 18.234375 27.125 18.738281 26.945312 19.3125 L 26.886719 19.460938 L 26.777344 19.515625 C 26.703125 19.492188 26.628906 19.464844 26.554688 19.4375 C 26.125 19.300781 25.644531 19.296875 25.203125 19.386719 C 25.117188 19.414062 25.027344 19.441406 24.941406 19.472656 C 24.816406 19.519531 24.6875 19.546875 24.554688 19.570312 L 24.480469 19.402344 C 24.25 18.914062 24.003906 18.503906 23.636719 18.105469 L 23.539062 18 C 22.414062 16.800781 20.578125 16.359375 19.066406 15.859375 C 16.402344 14.976562 16.402344 14.976562 15.683594 14.238281 C 15.28125 13.773438 14.945312 13.234375 14.800781 12.628906 C 14.824219 12.511719 14.824219 12.511719 14.851562 12.414062 L 14.957031 12.472656 C 15.980469 13.050781 17.050781 13.34375 18.191406 13.589844 C 20.414062 14.074219 22.5 14.835938 24.21875 16.375 C 24.292969 16.445312 24.371094 16.515625 24.449219 16.589844 C 24.214844 15.921875 23.847656 15.414062 23.363281 14.90625 L 23.273438 14.804688 C 22.457031 13.925781 21.167969 13.390625 20.074219 12.957031 C 19.949219 12.902344 19.949219 12.902344 19.839844 12.792969 C 21.375 11.949219 22.941406 11.523438 24.695312 11.523438 "/><path style=" stroke:none;fill-rule:nonzero;fill:#7c4c2a;fill-opacity:1;" d="M 21.898438 34.640625 L 22.007812 34.640625 C 21.792969 35.96875 21.398438 37.039062 20.652344 38.164062 C 20.601562 38.246094 20.546875 38.332031 20.496094 38.417969 L 20.382812 38.597656 C 20.71875 38.570312 20.992188 38.488281 21.300781 38.355469 L 21.4375 38.296875 C 22.355469 37.894531 23.28125 37.339844 23.90625 36.535156 C 23.941406 36.492188 23.980469 36.445312 24.015625 36.398438 C 24.125 36.265625 24.234375 36.128906 24.339844 35.996094 C 24.410156 35.90625 24.484375 35.8125 24.554688 35.722656 C 24.554688 36.648438 24.273438 37.503906 23.816406 38.296875 C 23.640625 38.601562 23.453125 38.902344 23.253906 39.191406 C 24.460938 38.800781 25.75 38.308594 26.644531 37.371094 C 26.71875 37.285156 26.789062 37.199219 26.859375 37.113281 L 26.941406 37.023438 L 27.050781 37.023438 L 27.097656 36.917969 L 27.160156 36.808594 L 27.265625 36.753906 C 27.070312 37.796875 26.726562 38.585938 26.128906 39.464844 C 26.722656 39.464844 27.386719 39.023438 27.894531 38.734375 C 28.1875 38.546875 28.449219 38.320312 28.707031 38.09375 C 28.839844 37.976562 28.9375 37.894531 29.109375 37.835938 L 29.109375 37.730469 C 29.191406 37.648438 29.191406 37.648438 29.304688 37.554688 C 29.519531 37.371094 29.722656 37.175781 29.921875 36.96875 C 29.953125 37.066406 29.953125 37.066406 29.976562 37.1875 C 29.9375 37.28125 29.898438 37.375 29.855469 37.464844 C 29.804688 37.578125 29.804688 37.578125 29.792969 37.746094 C 29.75 38.015625 29.648438 38.238281 29.542969 38.488281 L 29.488281 38.632812 C 29.300781 39.109375 29.054688 39.546875 28.800781 39.988281 C 28.730469 40.113281 28.664062 40.234375 28.59375 40.359375 L 28.527344 40.480469 C 28.488281 40.550781 28.449219 40.625 28.40625 40.699219 C 28.320312 40.855469 28.234375 40.992188 28.121094 41.128906 L 28.027344 41.253906 L 28.027344 41.46875 C 27.917969 41.570312 27.800781 41.667969 27.679688 41.753906 L 27.582031 41.828125 C 27.496094 41.894531 27.410156 41.953125 27.320312 42.011719 L 27.210938 42.011719 L 27.210938 42.121094 L 8.78125 42.121094 C 8.9375 42.015625 9.042969 41.980469 9.21875 41.929688 L 9.386719 41.886719 L 9.566406 41.839844 C 11.957031 41.183594 14.207031 39.976562 16.070312 38.339844 C 16.183594 38.25 16.300781 38.179688 16.425781 38.109375 L 16.535156 38 C 16.625 37.972656 16.71875 37.949219 16.816406 37.929688 C 18.378906 37.550781 19.878906 36.792969 21.058594 35.691406 C 21.363281 35.398438 21.609375 35.089844 21.832031 34.730469 Z M 21.898438 34.640625 "/><path style=" stroke:none;fill-rule:nonzero;fill:#d6b487;fill-opacity:1;" d="M 21.96875 18.429688 C 22.425781 18.601562 22.792969 18.835938 23.132812 19.195312 C 23.414062 19.550781 23.65625 20.007812 23.730469 20.460938 C 23.789062 21.136719 23.773438 21.804688 23.515625 22.441406 C 23.332031 22.808594 23.09375 23.113281 22.769531 23.363281 C 22.328125 23.628906 21.875 23.84375 21.355469 23.867188 C 21.277344 23.871094 21.203125 23.871094 21.128906 23.867188 L 21.007812 23.867188 C 20.5 23.855469 20.039062 23.742188 19.589844 23.5 C 19.195312 23.25 18.910156 22.945312 18.675781 22.542969 L 18.59375 22.386719 L 18.523438 22.253906 C 18.359375 21.867188 18.355469 21.472656 18.351562 21.058594 L 18.347656 20.882812 C 18.351562 20.414062 18.46875 20.042969 18.671875 19.621094 C 18.941406 19.183594 19.238281 18.867188 19.691406 18.613281 C 20.40625 18.265625 21.203125 18.203125 21.96875 18.429688 "/><path style=" stroke:none;fill-rule:nonzero;fill:#d6b589;fill-opacity:1;" d="M 31.347656 18.433594 C 31.820312 18.601562 32.179688 18.886719 32.523438 19.246094 C 32.820312 19.601562 32.984375 20.007812 33.097656 20.453125 C 33.195312 21.085938 33.132812 21.714844 32.90625 22.3125 C 32.71875 22.730469 32.429688 23.066406 32.078125 23.355469 C 31.707031 23.617188 31.296875 23.796875 30.84375 23.851562 C 30.1875 23.886719 29.625 23.871094 29.027344 23.582031 C 28.628906 23.355469 28.34375 23.074219 28.101562 22.679688 C 27.804688 22.113281 27.734375 21.542969 27.738281 20.910156 C 27.773438 20.445312 27.914062 19.976562 28.160156 19.578125 C 28.476562 19.128906 28.835938 18.785156 29.328125 18.539062 C 29.980469 18.257812 30.667969 18.234375 31.347656 18.433594 "/><path style=" stroke:none;fill-rule:nonzero;fill:#8e5f35;fill-opacity:1;" d="M 16.316406 15.992188 C 16.609375 16.003906 16.875 16.128906 17.144531 16.238281 C 17.585938 16.414062 18.035156 16.5625 18.492188 16.699219 C 19.167969 16.902344 19.835938 17.136719 20.492188 17.402344 L 20.492188 17.457031 L 20.375 17.46875 C 19.753906 17.558594 19.21875 17.746094 18.714844 18.121094 L 18.59375 18.214844 L 18.457031 18.316406 C 18.308594 18.445312 18.195312 18.578125 18.078125 18.738281 L 17.957031 18.898438 C 17.808594 19.113281 17.6875 19.339844 17.5625 19.570312 L 17.464844 19.542969 C 16.574219 19.285156 16.574219 19.285156 15.667969 19.296875 C 15.539062 19.394531 15.539062 19.394531 15.449219 19.515625 C 15.429688 19.679688 15.433594 19.796875 15.488281 19.953125 C 15.550781 20.066406 15.550781 20.066406 15.6875 20.121094 L 15.847656 20.171875 L 16.152344 20.273438 C 16.246094 20.308594 16.335938 20.34375 16.425781 20.382812 L 16.421875 20.480469 C 16.40625 21.226562 16.4375 21.929688 16.589844 22.660156 L 16.628906 22.871094 C 16.734375 23.324219 16.90625 23.699219 17.136719 24.097656 C 17.191406 24.195312 17.242188 24.292969 17.292969 24.394531 L 17.238281 24.503906 L 17.1875 24.410156 L 17.046875 24.175781 C 16.972656 24.0625 16.972656 24.0625 16.851562 24 L 16.75 23.960938 L 16.804688 23.90625 L 16.589844 23.90625 L 16.535156 23.582031 L 16.695312 23.527344 L 16.535156 23.148438 L 16.425781 23.203125 L 16.480469 23.308594 C 16.390625 23.320312 16.304688 23.332031 16.214844 23.34375 L 16.066406 23.363281 L 15.9375 23.363281 L 15.773438 23.203125 L 15.773438 23.308594 L 15.882812 23.363281 L 15.828125 23.527344 L 15.71875 23.527344 C 15.710938 23.691406 15.710938 23.691406 15.773438 23.851562 L 15.9375 23.796875 L 15.9375 23.90625 L 15.992188 23.960938 C 16.023438 24.125 16.046875 24.277344 16.046875 24.449219 L 16.152344 24.503906 L 16.207031 24.394531 L 16.207031 24.503906 L 16.316406 24.503906 L 16.425781 24.773438 L 16.261719 24.773438 L 16.261719 24.882812 L 16.425781 24.828125 L 16.375 24.921875 C 16.320312 25.035156 16.289062 25.140625 16.261719 25.261719 L 16.101562 25.261719 L 16.101562 25.425781 L 15.992188 25.425781 L 15.992188 25.53125 L 15.839844 25.53125 C 15.648438 25.527344 15.460938 25.527344 15.269531 25.527344 C 15.1875 25.527344 15.105469 25.523438 15.023438 25.523438 C 14.484375 25.519531 13.976562 25.546875 13.445312 25.640625 L 13.523438 25.527344 C 13.960938 24.875 14.230469 24.179688 14.339844 23.40625 L 14.359375 23.25 C 14.417969 22.804688 14.441406 22.355469 14.464844 21.90625 C 14.5625 19.898438 14.929688 18.09375 15.992188 16.371094 C 16.09375 16.214844 16.171875 16.117188 16.316406 15.992188 "/><path style=" stroke:none;fill-rule:nonzero;fill:#3b2919;fill-opacity:1;" d="M 44.832031 31.0625 C 45.046875 31.128906 45.179688 31.191406 45.335938 31.351562 C 45.449219 31.53125 45.53125 31.660156 45.542969 31.875 C 45.53125 32.0625 45.503906 32.210938 45.417969 32.375 C 45.296875 32.546875 45.179688 32.671875 45.007812 32.792969 C 44.84375 32.847656 44.75 32.851562 44.578125 32.851562 C 44.433594 32.855469 44.433594 32.855469 44.289062 32.90625 C 44.082031 33.058594 43.902344 33.234375 43.722656 33.417969 C 43.585938 33.550781 43.445312 33.679688 43.300781 33.804688 C 43.027344 34.058594 42.761719 34.316406 42.5 34.585938 L 42.617188 34.699219 L 42.773438 34.855469 L 42.859375 34.9375 C 43.011719 35.089844 43.152344 35.253906 43.28125 35.425781 C 43.367188 35.53125 43.367188 35.53125 43.476562 35.613281 C 43.640625 35.671875 43.800781 35.707031 43.972656 35.738281 C 44.121094 35.777344 44.207031 35.8125 44.324219 35.910156 C 44.4375 36.035156 44.496094 36.109375 44.558594 36.265625 C 44.585938 36.464844 44.582031 36.660156 44.558594 36.863281 C 44.464844 37.066406 44.363281 37.167969 44.195312 37.316406 C 43.996094 37.414062 43.867188 37.433594 43.648438 37.421875 C 43.472656 37.394531 43.351562 37.339844 43.203125 37.242188 C 43.046875 37.074219 42.945312 36.917969 42.878906 36.699219 L 42.875 36.503906 C 42.859375 36.351562 42.828125 36.269531 42.742188 36.144531 C 42.632812 36.015625 42.519531 35.898438 42.402344 35.777344 L 42.28125 35.652344 C 42.128906 35.488281 42.128906 35.488281 41.957031 35.34375 L 41.742188 35.34375 C 41.648438 35.414062 41.648438 35.414062 41.566406 35.511719 C 41.429688 35.652344 41.296875 35.785156 41.148438 35.910156 C 40.953125 36.078125 40.773438 36.253906 40.597656 36.4375 C 40.503906 36.527344 40.414062 36.59375 40.308594 36.660156 L 40.167969 36.808594 C 40.140625 36.960938 40.132812 37.105469 40.128906 37.261719 C 40.113281 37.402344 40.113281 37.402344 40.023438 37.589844 C 39.878906 37.75 39.761719 37.847656 39.574219 37.945312 C 39.425781 37.992188 39.292969 38.011719 39.140625 38 C 38.90625 37.929688 38.742188 37.820312 38.574219 37.648438 C 38.453125 37.457031 38.4375 37.335938 38.421875 37.113281 C 38.4375 36.890625 38.476562 36.777344 38.597656 36.589844 C 38.742188 36.441406 38.882812 36.332031 39.085938 36.265625 L 39.203125 36.277344 C 39.382812 36.285156 39.507812 36.269531 39.679688 36.210938 C 39.992188 35.992188 40.246094 35.699219 40.503906 35.421875 C 40.578125 35.347656 40.648438 35.269531 40.722656 35.195312 C 40.902344 35.011719 41.078125 34.824219 41.253906 34.640625 C 41.085938 34.378906 41.085938 34.378906 40.882812 34.148438 L 40.800781 34.066406 L 40.628906 33.902344 C 40.574219 33.847656 40.519531 33.796875 40.464844 33.742188 C 40.390625 33.667969 40.320312 33.589844 40.253906 33.507812 L 40.113281 33.394531 C 39.921875 33.351562 39.921875 33.351562 39.734375 33.394531 C 39.609375 33.484375 39.609375 33.484375 39.515625 33.625 L 39.390625 33.789062 L 39.246094 33.988281 C 39.183594 34.074219 39.117188 34.160156 39.054688 34.25 C 38.890625 34.46875 38.730469 34.6875 38.570312 34.910156 C 38.488281 35.019531 38.488281 35.019531 38.355469 35.164062 C 38.257812 35.285156 38.257812 35.285156 38.257812 35.449219 L 38.269531 35.613281 C 38.277344 35.832031 38.277344 35.929688 38.179688 36.132812 C 37.96875 36.359375 37.96875 36.359375 37.785156 36.429688 C 37.578125 36.457031 37.390625 36.460938 37.1875 36.429688 C 37.039062 36.355469 36.976562 36.285156 36.863281 36.15625 C 36.789062 36.039062 36.753906 35.949219 36.734375 35.8125 C 36.730469 35.582031 36.738281 35.425781 36.839844 35.214844 C 36.992188 35.046875 37.140625 34.945312 37.351562 34.855469 L 37.507812 34.816406 C 37.683594 34.757812 37.683594 34.757812 37.800781 34.605469 C 37.84375 34.542969 37.882812 34.480469 37.921875 34.417969 C 37.96875 34.351562 38.015625 34.28125 38.0625 34.214844 C 38.085938 34.179688 38.109375 34.140625 38.136719 34.105469 C 38.308594 33.855469 38.5 33.621094 38.683594 33.378906 C 38.90625 33.101562 38.90625 33.101562 39.085938 32.796875 C 39.089844 32.640625 39.089844 32.640625 39.070312 32.480469 C 39.066406 32.296875 39.070312 32.175781 39.152344 32.007812 C 39.246094 31.886719 39.335938 31.800781 39.464844 31.710938 C 39.632812 31.648438 39.773438 31.640625 39.953125 31.65625 C 40.109375 31.691406 40.246094 31.738281 40.386719 31.820312 C 40.546875 31.984375 40.644531 32.140625 40.710938 32.363281 L 40.695312 32.515625 L 40.710938 32.6875 C 40.828125 32.839844 40.828125 32.839844 40.984375 32.980469 C 41.171875 33.15625 41.351562 33.328125 41.515625 33.523438 C 41.652344 33.683594 41.785156 33.816406 41.957031 33.933594 L 42.066406 33.933594 L 42.101562 33.84375 C 42.203125 33.667969 42.347656 33.546875 42.5 33.414062 C 42.777344 33.164062 43.042969 32.910156 43.300781 32.640625 C 43.410156 32.539062 43.515625 32.457031 43.636719 32.371094 C 43.734375 32.296875 43.734375 32.296875 43.800781 32.199219 C 43.839844 32.035156 43.859375 31.875 43.878906 31.707031 C 43.910156 31.539062 43.953125 31.457031 44.066406 31.324219 C 44.292969 31.085938 44.5 31.035156 44.832031 31.0625 M 48.503906 24.917969 C 48.625 24.9375 48.625 24.9375 48.792969 25.039062 C 48.898438 25.207031 48.917969 25.28125 48.929688 25.476562 C 48.933594 25.609375 48.933594 25.609375 48.894531 25.75 C 48.726562 25.992188 48.546875 26.144531 48.300781 26.3125 C 47.964844 26.542969 47.636719 26.789062 47.3125 27.035156 C 46.898438 27.355469 46.480469 27.667969 46.054688 27.980469 C 45.816406 28.15625 45.578125 28.335938 45.34375 28.515625 C 44.949219 28.820312 44.546875 29.109375 44.144531 29.398438 C 44.019531 29.488281 43.890625 29.582031 43.761719 29.675781 C 42.453125 30.625 42.453125 30.625 42.230469 30.738281 C 42.117188 30.738281 42.117188 30.738281 41.992188 30.730469 L 41.863281 30.722656 L 41.742188 30.683594 C 41.585938 30.507812 41.472656 30.328125 41.363281 30.125 L 41.273438 29.957031 L 41.179688 29.777344 L 41.027344 29.496094 C 40.976562 29.394531 40.921875 29.296875 40.871094 29.199219 C 40.699219 28.882812 40.53125 28.5625 40.359375 28.246094 L 40.265625 28.074219 C 40.09375 27.753906 39.917969 27.433594 39.746094 27.113281 C 39.664062 26.960938 39.625 26.886719 39.609375 26.710938 C 39.625 26.507812 39.625 26.507812 39.71875 26.332031 C 39.847656 26.179688 39.929688 26.09375 40.113281 26.019531 C 40.300781 26.019531 40.300781 26.019531 40.492188 26.074219 C 40.75 26.257812 40.890625 26.429688 41.023438 26.714844 L 41.074219 26.824219 C 41.128906 26.9375 41.183594 27.050781 41.238281 27.164062 C 41.296875 27.28125 41.355469 27.402344 41.410156 27.519531 C 41.449219 27.597656 41.488281 27.675781 41.527344 27.753906 C 41.679688 28.070312 41.84375 28.386719 42.007812 28.695312 L 42.074219 28.824219 C 42.125 28.917969 42.175781 29.015625 42.230469 29.109375 L 42.28125 29.21875 C 42.515625 29.140625 42.691406 29.015625 42.882812 28.863281 C 42.945312 28.8125 43.007812 28.765625 43.070312 28.714844 L 43.167969 28.640625 C 43.304688 28.53125 43.445312 28.429688 43.582031 28.324219 C 43.804688 28.15625 44.027344 27.988281 44.246094 27.820312 C 44.621094 27.53125 44.996094 27.25 45.371094 26.96875 C 45.476562 26.890625 45.585938 26.808594 45.691406 26.726562 C 46.128906 26.398438 46.566406 26.074219 47.007812 25.75 C 47.3125 25.527344 47.613281 25.304688 47.914062 25.074219 C 48.113281 24.929688 48.257812 24.914062 48.503906 24.917969 "/><path style=" stroke:none;fill-rule:nonzero;fill:#906237;fill-opacity:1;" d="M 16.316406 15.992188 C 16.613281 16.027344 16.867188 16.128906 17.144531 16.238281 C 17.585938 16.414062 18.035156 16.5625 18.492188 16.699219 C 19.167969 16.902344 19.835938 17.136719 20.492188 17.402344 L 20.492188 17.457031 L 20.375 17.46875 C 19.753906 17.558594 19.21875 17.746094 18.714844 18.121094 L 18.59375 18.214844 L 18.457031 18.316406 C 18.308594 18.445312 18.195312 18.578125 18.078125 18.738281 L 17.957031 18.898438 C 17.808594 19.113281 17.6875 19.339844 17.5625 19.570312 L 17.464844 19.542969 C 16.574219 19.285156 16.574219 19.285156 15.667969 19.296875 C 15.539062 19.390625 15.539062 19.390625 15.449219 19.515625 C 15.40625 19.710938 15.40625 19.710938 15.394531 19.894531 L 15.3125 19.855469 L 15.179688 19.839844 C 15.042969 19.902344 14.925781 19.976562 14.800781 20.058594 L 14.691406 20.113281 C 14.660156 18.980469 15.160156 17.863281 15.679688 16.882812 C 15.859375 16.554688 16.0625 16.265625 16.316406 15.992188 "/><path style=" stroke:none;fill-rule:nonzero;fill:#936539;fill-opacity:1;" d="M 25.75 20.472656 L 25.875 20.472656 C 26.15625 20.476562 26.398438 20.523438 26.671875 20.597656 L 26.675781 20.796875 C 26.699219 21.53125 26.773438 22.253906 27.003906 22.953125 C 27.066406 23.207031 27.066406 23.445312 27.0625 23.707031 L 27.066406 23.851562 C 27.0625 24.453125 26.921875 24.988281 26.671875 25.53125 C 26.589844 25.667969 26.5 25.789062 26.398438 25.910156 C 26.164062 25.71875 25.949219 25.515625 25.734375 25.296875 C 25.496094 25.054688 25.246094 24.835938 24.980469 24.625 C 24.8125 24.492188 24.648438 24.351562 24.480469 24.214844 C 24.292969 24.054688 24.101562 23.898438 23.90625 23.742188 L 23.976562 23.652344 C 24.414062 23.0625 24.675781 22.410156 24.773438 21.683594 C 24.804688 21.339844 24.816406 20.996094 24.828125 20.652344 C 25.148438 20.515625 25.402344 20.464844 25.75 20.472656 "/><path style=" stroke:none;fill-rule:nonzero;fill:#94663a;fill-opacity:1;" d="M 48.824219 32.730469 C 49.355469 32.78125 49.921875 32.976562 50.359375 33.285156 L 50.488281 33.367188 L 50.609375 33.457031 L 50.722656 33.539062 C 50.792969 33.664062 50.792969 33.664062 50.800781 33.777344 C 50.773438 34.140625 50.664062 34.464844 50.535156 34.804688 L 50.480469 34.957031 C 50.359375 35.285156 50.214844 35.585938 50.035156 35.886719 L 49.871094 35.886719 C 49.746094 35.773438 49.746094 35.773438 49.601562 35.617188 C 49.402344 35.414062 49.203125 35.222656 48.976562 35.046875 C 48.523438 34.679688 48.089844 34.292969 47.8125 33.773438 C 47.738281 33.550781 47.726562 33.351562 47.757812 33.121094 C 47.859375 32.933594 47.859375 32.933594 47.976562 32.796875 C 48.222656 32.671875 48.550781 32.714844 48.824219 32.730469 "/><path style=" stroke:none;fill-rule:nonzero;fill:#94653a;fill-opacity:1;" d="M 49.347656 30.117188 L 49.53125 30.117188 C 50.207031 30.128906 50.953125 30.183594 51.550781 30.519531 C 51.539062 31.238281 51.402344 32.003906 51.171875 32.6875 C 51.007812 32.613281 50.863281 32.519531 50.710938 32.414062 C 50.101562 32.003906 49.460938 31.746094 48.757812 31.539062 C 48.40625 31.429688 48.15625 31.292969 47.894531 31.039062 C 47.8125 30.898438 47.8125 30.898438 47.777344 30.738281 C 47.8125 30.574219 47.8125 30.574219 47.941406 30.429688 C 48.351562 30.128906 48.855469 30.113281 49.347656 30.117188 "/><path style=" stroke:none;fill-rule:nonzero;fill:#7d4c29;fill-opacity:1;" d="M 34.910156 31.820312 L 35.34375 31.875 C 35.195312 32.578125 35.039062 33.28125 34.867188 33.980469 L 34.835938 34.101562 C 34.710938 34.625 34.578125 35.148438 34.449219 35.671875 C 34.371094 35.992188 34.289062 36.3125 34.210938 36.632812 C 34.152344 36.875 34.089844 37.117188 34.03125 37.359375 C 33.992188 37.511719 33.957031 37.664062 33.917969 37.816406 C 33.890625 37.921875 33.863281 38.027344 33.835938 38.132812 L 33.789062 38.328125 L 33.746094 38.496094 C 33.71875 38.644531 33.710938 38.773438 33.71875 38.921875 C 34.074219 39.117188 34.4375 39.234375 34.828125 39.34375 L 35.011719 39.394531 C 35.160156 39.4375 35.304688 39.476562 35.453125 39.519531 L 35.453125 39.574219 C 34.328125 39.550781 33.265625 39.046875 32.308594 38.488281 C 32.390625 38.257812 32.507812 38.054688 32.636719 37.847656 C 33.375 36.628906 33.96875 35.394531 34.421875 34.042969 L 34.460938 33.929688 C 34.667969 33.324219 34.742188 32.683594 34.832031 32.054688 C 34.855469 31.929688 34.855469 31.929688 34.910156 31.820312 "/><path style=" stroke:none;fill-rule:nonzero;fill:#3a2818;fill-opacity:1;" d="M 19.625 20.492188 C 19.742188 20.488281 19.742188 20.488281 19.894531 20.546875 C 19.960938 20.59375 20.027344 20.644531 20.09375 20.699219 C 20.335938 20.886719 20.570312 21.011719 20.871094 21.085938 C 21.210938 21.128906 21.53125 21.121094 21.855469 21.003906 C 22.105469 20.890625 22.320312 20.734375 22.535156 20.566406 C 22.660156 20.492188 22.660156 20.492188 22.804688 20.472656 C 22.84375 20.480469 22.886719 20.484375 22.929688 20.492188 L 23.039062 20.597656 C 23.082031 20.855469 23.070312 21.101562 22.988281 21.34375 C 22.839844 21.648438 22.671875 21.925781 22.402344 22.136719 C 22.082031 22.355469 21.746094 22.476562 21.359375 22.511719 C 20.917969 22.523438 20.546875 22.449219 20.15625 22.242188 C 19.917969 22.046875 19.707031 21.84375 19.5625 21.566406 C 19.464844 21.304688 19.441406 21.050781 19.4375 20.769531 C 19.460938 20.652344 19.460938 20.652344 19.535156 20.558594 Z M 28.675781 20.546875 C 28.800781 20.527344 28.800781 20.527344 28.949219 20.546875 C 29.078125 20.621094 29.078125 20.621094 29.207031 20.726562 C 29.539062 20.964844 29.539062 20.964844 29.921875 21.085938 C 30.304688 21.125 30.671875 21.144531 31.039062 21.023438 C 31.261719 20.914062 31.449219 20.800781 31.636719 20.640625 L 31.765625 20.546875 C 31.941406 20.550781 31.941406 20.550781 32.089844 20.597656 C 32.164062 20.746094 32.171875 20.886719 32.167969 21.050781 C 32.125 21.347656 31.984375 21.597656 31.820312 21.847656 C 31.59375 22.109375 31.335938 22.269531 31.015625 22.402344 C 30.640625 22.527344 30.253906 22.539062 29.867188 22.464844 C 29.496094 22.359375 29.230469 22.195312 28.953125 21.925781 C 28.773438 21.71875 28.644531 21.515625 28.566406 21.25 C 28.542969 21.046875 28.535156 20.855469 28.566406 20.652344 Z M 28.675781 20.546875 "/><path style=" stroke:none;fill-rule:nonzero;fill:#d7b68a;fill-opacity:1;" d="M 16.425781 20.382812 C 16.566406 20.40625 16.710938 20.433594 16.851562 20.457031 L 16.976562 20.476562 C 17.082031 20.496094 17.1875 20.519531 17.292969 20.546875 L 17.402344 20.652344 C 17.40625 20.804688 17.40625 20.804688 17.402344 20.996094 C 17.390625 21.851562 17.605469 22.570312 18.007812 23.320312 C 18.101562 23.464844 18.199219 23.570312 18.324219 23.6875 L 18.324219 23.796875 L 18.417969 23.839844 C 18.542969 23.90625 18.636719 23.980469 18.742188 24.074219 L 18.84375 24.164062 L 18.917969 24.230469 C 18.820312 24.265625 18.820312 24.265625 18.703125 24.285156 C 18.554688 24.164062 18.554688 24.164062 18.429688 24.015625 L 18.375 23.851562 L 17.996094 23.851562 L 17.996094 24.070312 L 17.78125 24.070312 L 17.78125 23.960938 L 17.671875 23.960938 L 17.726562 24.175781 L 17.402344 24.394531 L 17.484375 24.523438 L 17.5625 24.664062 L 17.507812 24.773438 C 16.863281 23.949219 16.554688 23.015625 16.40625 21.988281 C 16.375 21.722656 16.363281 21.457031 16.363281 21.1875 L 16.363281 21.078125 C 16.363281 20.839844 16.386719 20.617188 16.425781 20.382812 "/><path style=" stroke:none;fill-rule:nonzero;fill:#d7b78a;fill-opacity:1;" d="M 18.640625 16.757812 C 18.984375 16.828125 19.3125 16.953125 19.636719 17.074219 L 19.796875 17.132812 C 20.027344 17.21875 20.261719 17.308594 20.492188 17.402344 L 20.492188 17.457031 L 20.375 17.46875 C 19.753906 17.558594 19.21875 17.746094 18.714844 18.121094 L 18.59375 18.214844 L 18.457031 18.316406 C 18.070312 18.648438 17.796875 19.117188 17.5625 19.570312 L 16.640625 19.351562 C 16.773438 18.6875 17.183594 18.074219 17.617188 17.5625 C 17.753906 17.410156 17.898438 17.269531 18.050781 17.128906 L 18.171875 17.015625 L 18.292969 16.90625 L 18.398438 16.808594 C 18.539062 16.75 18.539062 16.75 18.640625 16.757812 "/><path style=" stroke:none;fill-rule:nonzero;fill:#916438;fill-opacity:1;" d="M 25.4375 22.101562 L 25.5625 22.101562 C 25.921875 22.109375 26.242188 22.160156 26.558594 22.339844 C 26.632812 22.386719 26.707031 22.441406 26.777344 22.496094 C 26.738281 22.628906 26.738281 22.628906 26.671875 22.769531 C 26.558594 22.816406 26.558594 22.816406 26.453125 22.820312 L 26.398438 22.769531 C 26.289062 22.777344 26.289062 22.777344 26.183594 22.820312 L 26.128906 22.984375 L 26.019531 22.984375 L 26.019531 23.09375 L 25.910156 23.09375 L 25.859375 23.203125 L 25.75 23.203125 L 25.707031 23.324219 C 25.632812 23.488281 25.5625 23.574219 25.425781 23.6875 C 25.300781 23.730469 25.300781 23.730469 25.207031 23.742188 L 25.328125 23.757812 C 25.476562 23.796875 25.476562 23.796875 25.605469 23.882812 C 25.695312 24.015625 25.695312 24.015625 25.707031 24.125 C 25.707031 24.234375 25.703125 24.339844 25.695312 24.449219 L 25.371094 24.609375 L 25.476562 24.71875 L 25.371094 24.71875 L 25.425781 24.9375 C 25.238281 24.855469 25.117188 24.75 24.96875 24.609375 C 24.640625 24.304688 24.277344 24.054688 23.90625 23.796875 L 23.976562 23.695312 C 24.238281 23.300781 24.566406 22.796875 24.625 22.320312 L 24.664062 22.226562 C 24.914062 22.105469 25.164062 22.097656 25.4375 22.101562 "/><path style=" stroke:none;fill-rule:nonzero;fill:#d5b386;fill-opacity:1;" d="M 25.5 20.472656 L 25.875 20.472656 C 26.15625 20.476562 26.398438 20.523438 26.671875 20.597656 L 26.675781 20.804688 C 26.695312 21.316406 26.730469 21.8125 26.835938 22.3125 C 26.867188 22.464844 26.890625 22.585938 26.863281 22.738281 L 26.832031 22.820312 L 26.8125 22.675781 C 26.742188 22.492188 26.742188 22.492188 26.605469 22.417969 C 26.210938 22.214844 25.886719 22.164062 25.449219 22.164062 L 25.101562 22.164062 C 24.960938 22.171875 24.960938 22.171875 24.71875 22.226562 L 24.828125 20.652344 C 25.316406 20.46875 25.316406 20.46875 25.5 20.472656 "/><path style=" stroke:none;fill-rule:nonzero;fill:#85522c;fill-opacity:1;" d="M 34.910156 31.820312 L 35.34375 31.875 C 35.136719 32.875 34.894531 33.867188 34.652344 34.859375 C 34.59375 35.085938 34.539062 35.316406 34.484375 35.546875 C 34.4375 35.726562 34.394531 35.90625 34.351562 36.089844 C 34.328125 36.175781 34.308594 36.261719 34.285156 36.347656 C 34.257812 36.46875 34.226562 36.585938 34.199219 36.707031 L 34.148438 36.914062 C 34.097656 37.078125 34.097656 37.078125 33.988281 37.242188 C 34.011719 36.957031 34.046875 36.699219 34.152344 36.429688 L 33.988281 36.484375 L 34.097656 36.265625 L 34.207031 36.265625 L 34.261719 35.886719 C 34.136719 35.839844 34.136719 35.839844 33.988281 35.832031 C 33.792969 35.976562 33.707031 36.15625 33.609375 36.375 L 33.554688 36.210938 C 33.617188 36.066406 33.617188 36.066406 33.710938 35.878906 C 34 35.289062 34.210938 34.664062 34.421875 34.042969 L 34.460938 33.929688 C 34.667969 33.324219 34.742188 32.683594 34.832031 32.054688 C 34.855469 31.929688 34.855469 31.929688 34.910156 31.820312 "/><path style=" stroke:none;fill-rule:nonzero;fill:#906236;fill-opacity:1;" d="M 24.015625 29.542969 C 24.335938 29.796875 24.578125 30.085938 24.828125 30.410156 L 24.773438 30.519531 L 24.121094 29.761719 L 24.070312 30.148438 L 24.050781 30.265625 C 24.007812 30.582031 24.007812 30.582031 24.015625 30.898438 L 24.175781 31.007812 L 24.285156 31.332031 L 24.449219 31.441406 L 24.609375 31.386719 L 24.554688 31.222656 L 24.664062 31.171875 L 24.664062 31.277344 L 24.773438 31.277344 L 24.71875 31.550781 L 24.554688 31.550781 L 24.609375 31.65625 C 24.597656 31.769531 24.597656 31.769531 24.570312 31.898438 L 24.542969 32.027344 C 24.496094 32.160156 24.4375 32.210938 24.339844 32.308594 L 24.339844 32.472656 C 24.265625 32.5625 24.265625 32.5625 24.175781 32.632812 L 24.070312 32.632812 L 24.015625 32.523438 L 23.960938 32.605469 L 23.851562 32.6875 C 23.707031 32.699219 23.566406 32.691406 23.417969 32.6875 L 23.363281 32.742188 C 23.199219 32.75 23.089844 32.742188 22.929688 32.6875 C 23.011719 32.464844 23.121094 32.277344 23.25 32.078125 C 23.421875 31.800781 23.574219 31.53125 23.6875 31.222656 L 23.746094 31.070312 C 23.917969 30.570312 23.96875 30.070312 24.015625 29.542969 M 33.339844 15.992188 C 33.839844 16.605469 34.21875 17.390625 34.421875 18.160156 C 34.402344 18.289062 34.402344 18.289062 34.367188 18.375 L 34.273438 18.257812 C 33.671875 17.511719 33.0625 17.050781 32.199219 16.640625 C 32.410156 16.46875 32.648438 16.351562 32.890625 16.226562 L 33.019531 16.15625 C 33.128906 16.101562 33.234375 16.046875 33.339844 15.992188 "/></g></svg>